<svg id="Layer_1" data-name="Layer 1" xmlns="http://www.w3.org/2000/svg" viewBox="0 0 99.91 100"><defs><style>.cls-1{fill:#a5dff9;}.cls-2{fill:#8c3123;}.cls-3{fill:#e05243;}.cls-4{fill:#5e1f18;}.cls-5{fill:#f2b0a9;}</style></defs><title>craft-cloudfront-purge-icon</title><g id="layer1"><path id="path8586" class="cls-1" d="M50.73,0A50,50,0,0,0,14.64,85.36L9.76,90.24H33.33V66.67l-6,6a32,32,0,0,1,0-45.3h0a32,32,0,0,1,37.84-5.53v-12a1.49,1.49,0,0,1,1.33-1.48h11A50,50,0,0,0,50.73,0Z" transform="translate(0 0)"/><g id="use8607"><path class="cls-1" d="M49.18,100A50,50,0,0,0,85.27,14.64l4.88-4.88H66.58V33.33l6-6a32,32,0,0,1,0,45.3h0a32,32,0,0,1-37.84,5.53v12a1.49,1.49,0,0,1-1.34,1.48h-11A50,50,0,0,0,49.18,100Z" transform="translate(0 0)"/></g></g><polygon class="cls-2" points="59.55 43.38 74.44 42.24 74.44 23.49 59.55 27.36 59.55 43.38"/><polygon class="cls-3" points="65.37 40.98 49.85 38.73 49.85 11.27 65.37 19.03 65.37 40.98"/><polygon class="cls-3" points="82.2 43.4 74.44 42.28 74.44 23.49 82.2 27.37 82.2 43.4"/><polygon class="cls-4" points="59.55 43.38 74.27 42.25 82.2 43.4 67.97 44.25 59.55 43.38"/><polygon class="cls-2" points="59.55 56.61 74.44 57.76 74.44 76.51 59.55 72.64 59.55 56.61"/><polygon class="cls-3" points="65.37 59.02 49.85 61.27 49.85 88.73 65.37 80.97 65.37 59.02"/><polygon class="cls-3" points="82.04 56.6 74.29 57.72 74.29 76.51 82.04 72.63 82.04 56.6"/><polygon class="cls-5" points="59.55 56.61 74.27 57.75 82.2 56.6 67.97 55.75 59.55 56.61"/><polygon class="cls-3" points="40.3 43.38 25.41 42.24 25.41 23.49 40.3 27.36 40.3 43.38"/><polygon class="cls-2" points="34.48 40.98 50 38.73 50 11.27 34.48 19.03 34.48 40.98"/><polygon class="cls-2" points="17.8 43.4 25.56 42.28 25.56 23.49 17.8 27.37 17.8 43.4"/><polygon class="cls-4" points="40.45 43.38 25.73 42.25 17.8 43.4 32.03 44.25 40.45 43.38"/><polygon class="cls-3" points="40.3 56.61 25.41 57.76 25.41 76.51 40.3 72.64 40.3 56.61"/><polygon class="cls-2" points="34.48 59.02 50 61.27 50 88.73 34.48 80.97 34.48 59.02"/><polygon class="cls-2" points="17.8 56.6 25.56 57.72 25.56 76.51 17.8 72.63 17.8 56.6"/><polygon class="cls-5" points="40.45 56.61 25.73 57.75 17.8 56.6 32.03 55.75 40.45 56.61"/><polygon class="cls-5" points="65.52 59.02 50 57.5 34.48 59.02 50 61.29 65.52 59.02"/><polygon class="cls-4" points="65.52 40.98 50 42.48 34.48 40.98 50 38.73 65.52 40.98"/></svg>